<?xml version="1.0" encoding="utf-8"?>
<!-- Generator: Adobe Illustrator 22.0.1, SVG Export Plug-In . SVG Version: 6.00 Build 0)  -->
<svg version="1.1" id="Layer_1" xmlns="http://www.w3.org/2000/svg" xmlns:xlink="http://www.w3.org/1999/xlink" x="0px" y="0px"
	 viewBox="0 0 113.4 113.4" style="enable-background:new 0 0 113.4 113.4;" xml:space="preserve">
<style type="text/css">
	.st0{fill:#F7F7F7;stroke:#000000;stroke-width:0.4728;stroke-miterlimit:10;}
	.st1{fill:#F37B7C;stroke:#FFFFFF;stroke-width:0.4728;stroke-miterlimit:10;}
	.st2{opacity:0.5;fill:none;stroke:#FFFFFF;stroke-width:1.4184;stroke-linecap:round;stroke-linejoin:round;stroke-miterlimit:10;}
	.st3{fill:none;stroke:#000000;stroke-width:0.9456;stroke-linecap:round;stroke-linejoin:round;stroke-miterlimit:10;}
	.st4{fill:#754D25;}
	.st5{fill:#F37B7C;}
	.st6{fill:#F6A0A5;}
	.st7{fill:#FFFFFF;stroke:#000000;stroke-miterlimit:10;}
	.st8{fill:#A7A9AC;}
	.st9{fill:#D1D3D4;stroke:#000000;stroke-width:0.4388;stroke-miterlimit:10;}
	.st10{opacity:0.7;fill:#FFFFFF;}
	.st11{opacity:0.6;fill:#FFFFFF;}
	.st12{fill:none;stroke:#2A3A3A;stroke-width:0.8777;stroke-linecap:round;stroke-linejoin:round;stroke-miterlimit:10;}
	.st13{fill:none;stroke:#2A3A3A;stroke-width:0.3291;stroke-linecap:round;stroke-linejoin:round;stroke-miterlimit:10;}
	.st14{fill:#F37B7C;stroke:#000000;stroke-width:0.4728;stroke-miterlimit:10;}
	.st15{fill:none;stroke:#2A3A3A;stroke-width:0.2194;stroke-miterlimit:10;}
	.st16{fill:#F69FA8;stroke:#000000;stroke-width:0.6003;stroke-miterlimit:10;}
	.st17{fill:#FFFFFF;}
	.st18{fill:#FFFFFF;stroke:#000000;stroke-width:0.6003;stroke-miterlimit:10;}
	.st19{fill:none;stroke:#000000;stroke-width:0.6003;stroke-linecap:round;stroke-linejoin:round;stroke-miterlimit:10;}
	.st20{fill:#F15F66;}
	.st21{fill:#FFFFFF;stroke:#000000;stroke-width:2.4397;stroke-linecap:round;stroke-linejoin:round;stroke-miterlimit:10;}
	.st22{fill:#EFAFBD;}
	.st23{fill:none;stroke:#000000;stroke-width:0.9149;stroke-miterlimit:10;}
	.st24{fill:#E6E6E6;}
</style>
<path class="st21" d="M97.7,32.9c0-12.5-10.2-22.7-22.7-22.7S52.4,20.4,52.4,32.9c0,0.9,0.1,1.9,0.2,2.8h-0.2
	c-0.8-10.3-9.4-18.4-19.9-18.4c-11,0-19.9,8.9-19.9,19.9c0,7.3,4,13.7,9.9,17.2v38.4c0,5.7,4.7,10.4,10.4,10.4h48.6
	c5.7,0,10.4-4.7,10.4-10.4V48.1C95.5,44.1,97.7,38.7,97.7,32.9z"/>
<path class="st22" d="M85.6,66.8c-4.3,6-13.7,5.3-14.8,11.4c-0.7,3.7,2.5,5.2,1.8,9.3c-0.9,5.3-7.2,9.8-13.1,10
	c-7.4,0.3-12.4-6-13.6-7.5c-4.2-5.2-2.5-8-6.7-13.7c-4.5-6.1-7.8-4.9-10.8-9.5c-5.4-8-3.4-23.8,3.1-27.3c7-3.8,14.1,9.5,25,6.8
	c10.5-2.6,11.6-16.9,18.1-16.6C83.1,30.2,93,56.5,85.6,66.8z"/>
<path d="M60.4,65.5c0,3.6-1.7,6.5-3.8,6.5s-3.8-2.9-3.8-6.5H60.4z"/>
<ellipse class="st5" cx="40" cy="61.6" rx="4.1" ry="1.4"/>
<ellipse class="st5" cx="72.1" cy="61.6" rx="4.1" ry="1.4"/>
<path class="st23" d="M39,56c0.7-1.3,2.1-2.2,3.5-2.2c1.5,0,3,0.8,3.7,2.2"/>
<path class="st23" d="M62.9,56c0.7-1.3,2.1-2.2,3.5-2.2c1.5,0,3,0.8,3.7,2.2"/>
<path class="st24" d="M92.8,29.7c0.5,0.7,1.6,0.2,1.4-0.6c-1.7-7.8-9.3-13.8-18.5-14c-3.9-0.1-7.5,0.9-10.6,2.6
	c-0.8,0.4-0.3,1.6,0.5,1.5c3.6-0.8,8.9-1.2,14.8,0.9C86.9,22.4,90.8,26.7,92.8,29.7z"/>
<path class="st24" d="M34.1,22.6c0.6,0,0.7-0.8,0.2-1c-4.8-2.1-10.8-0.4-14.5,4.4c-1.6,2-2.5,4.3-2.8,6.6c-0.1,0.6,0.7,0.8,1,0.3
	c1-2.2,2.8-5.2,6.2-7.5C28,22.9,31.7,22.5,34.1,22.6z"/>
</svg>
