<?xml version="1.0" encoding="utf-8"?>
<!-- Generator: Adobe Illustrator 22.0.1, SVG Export Plug-In . SVG Version: 6.00 Build 0)  -->
<svg version="1.1" id="Layer_1" xmlns="http://www.w3.org/2000/svg" xmlns:xlink="http://www.w3.org/1999/xlink" x="0px" y="0px"
	 viewBox="0 0 113.4 113.4" style="enable-background:new 0 0 113.4 113.4;" xml:space="preserve">
<style type="text/css">
	.st0{fill:#F7F7F7;stroke:#000000;stroke-width:0.4728;stroke-miterlimit:10;}
	.st1{fill:#F37B7C;stroke:#FFFFFF;stroke-width:0.4728;stroke-miterlimit:10;}
	.st2{opacity:0.5;fill:none;stroke:#FFFFFF;stroke-width:1.4184;stroke-linecap:round;stroke-linejoin:round;stroke-miterlimit:10;}
	.st3{fill:none;stroke:#000000;stroke-width:0.9456;stroke-linecap:round;stroke-linejoin:round;stroke-miterlimit:10;}
	.st4{fill:#754D25;}
	.st5{fill:#F37B7C;}
	.st6{fill:#F6A0A5;}
	.st7{fill:#FFFFFF;stroke:#000000;stroke-miterlimit:10;}
	.st8{fill:#A7A9AC;}
	.st9{fill:#D1D3D4;stroke:#000000;stroke-width:0.4388;stroke-miterlimit:10;}
	.st10{opacity:0.7;fill:#FFFFFF;}
	.st11{opacity:0.6;fill:#FFFFFF;}
	.st12{fill:none;stroke:#2A3A3A;stroke-width:0.8777;stroke-linecap:round;stroke-linejoin:round;stroke-miterlimit:10;}
	.st13{fill:none;stroke:#2A3A3A;stroke-width:0.3291;stroke-linecap:round;stroke-linejoin:round;stroke-miterlimit:10;}
	.st14{fill:#F37B7C;stroke:#000000;stroke-width:0.4728;stroke-miterlimit:10;}
	.st15{fill:none;stroke:#2A3A3A;stroke-width:0.2194;stroke-miterlimit:10;}
	.st16{fill:#F69FA8;stroke:#000000;stroke-width:0.6003;stroke-miterlimit:10;}
	.st17{fill:#FFFFFF;}
	.st18{fill:#FFFFFF;stroke:#000000;stroke-width:0.6003;stroke-miterlimit:10;}
	.st19{fill:none;stroke:#000000;stroke-width:0.6003;stroke-linecap:round;stroke-linejoin:round;stroke-miterlimit:10;}
	.st20{fill:#F15F66;}
	.st21{fill:#FFFFFF;stroke:#000000;stroke-width:2.4397;stroke-linecap:round;stroke-linejoin:round;stroke-miterlimit:10;}
	.st22{fill:#EFAFBD;}
	.st23{fill:none;stroke:#000000;stroke-width:0.9149;stroke-miterlimit:10;}
	.st24{fill:#E6E6E6;}
</style>
<path class="st7" d="M96.3,97h-78c-4.1,0-7.4-3.3-7.4-7.4v0c0-4.1,3.3-7.4,7.4-7.4h78c4.1,0,7.4,3.3,7.4,7.4v0
	C103.7,93.7,100.4,97,96.3,97z"/>
<path class="st1" d="M97,75.6H16.4c-3.7,0-6.7-3-6.7-6.7v0c0-3.7,3-6.7,6.7-6.7H97c3.7,0,6.7,3,6.7,6.7v0
	C103.7,72.6,100.7,75.6,97,75.6z"/>
<path class="st8" d="M96.3,63.9c-3-0.1-3.3,2.1-6.3,2.2c-3.9,0.1-5.1-3.7-8.5-3.3c-2.4,0.3-2.2,2.2-5,3c-3.6,1.1-4.9-1.6-9.6-1.3
	c-4.2,0.3-4.9,2.6-8,2c-3.3-0.7-3.5-3.4-6.1-3.5c-3.6-0.1-4.7,5-8.3,5c-3.4,0-4.1-4.7-7.6-4.8c-3.3-0.1-4.1,4-8,4.1
	c-3.1,0.1-4-2.5-6.7-2C19.3,66,19,69,16.7,68.9c-2.6-0.1-3.3-4.2-5.9-4.1c-2.2,0-3.4,3.2-4.8,2.8c-1-0.3-1.4-2-1.5-3.7v0
	c0-2.9,2.3-5.2,5.2-5.2h93.9c2.9,0,5.2,2.3,5.2,5.2c-2.1,2.4-3.9,3.1-5.4,3C100.5,66.9,99.6,64.1,96.3,63.9z"/>
<path class="st9" d="M55.5,78c-7.4,0.4-15.3,0.7-23.5,0.6c-6.1-0.1-12.1-0.3-17.7-0.6c-0.1,0-0.5,0-0.9-0.4
	c-0.2-0.2-0.4-0.5-0.4-0.9v0c0-0.7,0.5-1.2,1.2-1.2c8.7-1.1,18.6-1.6,29.5-1c4.1,0.2,8,0.6,11.7,1c0.1,0,0.5,0,0.9,0.4
	c0.2,0.2,0.4,0.5,0.4,0.9v0C56.7,77.5,56.1,78,55.5,78z"/>
<path class="st9" d="M97.6,78c-6.5,0.7-13.8,1.1-21.7,1.1c-7,0-13.6-0.5-19.5-1.1c-0.1,0-0.5,0-0.9-0.4c-0.2-0.2-0.4-0.5-0.4-0.9v0
	c0-0.7,0.5-1.2,1.2-1.2c6.1-0.7,13-1.2,20.5-1.2c7.6,0,14.6,0.5,20.8,1.2c0.1,0,0.5,0,0.9,0.4c0.2,0.2,0.4,0.5,0.4,0.9v0
	C98.8,77.5,98.3,78,97.6,78z"/>
<path class="st8" d="M96.3,83.2c-3-0.1-3.3,2.1-6.3,2.2c-3.9,0.1-5.1-3.7-8.5-3.3c-2.4,0.3-2.2,2.2-5,3c-3.6,1.1-4.9-1.6-9.6-1.3
	c-4.2,0.3-4.9,2.6-8,2c-3.3-0.7-3.5-3.4-6.1-3.5c-3.6-0.1-4.7,5-8.3,5c-3.4,0-4.1-4.7-7.6-4.8c-3.3-0.1-4.1,4-8,4.1
	c-3.1,0.1-4-2.5-6.7-2c-2.9,0.5-3.2,3.5-5.4,3.5c-2.6-0.1-3.3-4.2-5.9-4.1c-2.2,0-3.4,3.2-4.8,2.8c-1-0.3-1.4-2-1.5-3.7v0
	c0-2.9,2.3-5.2,5.2-5.2h93.9c2.9,0,5.2,2.3,5.2,5.2c-2.1,2.4-3.9,3.1-5.4,3C100.5,86.2,99.6,83.3,96.3,83.2z"/>
<path class="st7" d="M99,59.9c5,0,8.8-4.1,7.8-8.6c-4.5-21.4-25.2-37.6-50.1-37.6S11,29.8,6.6,51.3c-0.9,4.5,2.8,8.6,7.8,8.6H99z"/>
<ellipse transform="matrix(0.2192 -0.9757 0.9757 0.2192 34.3996 89.0675)" class="st10" cx="72.8" cy="23" rx="4.6" ry="9.9"/>
<ellipse class="st11" cx="86.9" cy="30.1" rx="3.4" ry="2.4"/>
<ellipse transform="matrix(0.5 -0.866 0.866 0.5 -17.9461 33.1235)" class="st11" cx="19.7" cy="32.1" rx="2.1" ry="0.9"/>
<ellipse class="st11" cx="9.7" cy="53.3" rx="1.2" ry="2.8"/>
<path class="st12" d="M34.3,34.9c0.7-1.3,2.1-2.1,3.5-2c2.2,0.1,3.2,1.9,3.3,2"/>
<path class="st12" d="M69.1,34.9c0.7-1.3,2.1-2.1,3.5-2c2.2,0.1,3.2,1.9,3.3,2"/>
<path class="st13" d="M60.5,45.4c-0.7,1.3-2.1,2.1-3.5,2c-2.2-0.1-3.2-1.9-3.3-2"/>
<path class="st14" d="M58.2,47.3l0.7,1.4c0.3,0.3,0.7,0.3,1,0.2c0.3-0.2,0.4-0.5,0.4-0.5c-0.3-0.5-0.6-1.1-0.9-1.6L58.2,47.3z"/>
<line class="st15" x1="58.9" y1="47.1" x2="59.8" y2="48.9"/>
</svg>
