<?xml version="1.0" encoding="utf-8"?>
<!-- Generator: Adobe Illustrator 22.0.1, SVG Export Plug-In . SVG Version: 6.00 Build 0)  -->
<svg version="1.1" id="Layer_1" xmlns="http://www.w3.org/2000/svg" xmlns:xlink="http://www.w3.org/1999/xlink" x="0px" y="0px"
	 viewBox="0 0 113.4 113.4" style="enable-background:new 0 0 113.4 113.4;" xml:space="preserve">
<style type="text/css">
	.st0{fill:#F7F7F7;stroke:#000000;stroke-width:0.4728;stroke-miterlimit:10;}
	.st1{fill:#F37B7C;stroke:#FFFFFF;stroke-width:0.4728;stroke-miterlimit:10;}
	.st2{opacity:0.5;fill:none;stroke:#FFFFFF;stroke-width:1.4184;stroke-linecap:round;stroke-linejoin:round;stroke-miterlimit:10;}
	.st3{fill:none;stroke:#000000;stroke-width:0.9456;stroke-linecap:round;stroke-linejoin:round;stroke-miterlimit:10;}
	.st4{fill:#754D25;}
	.st5{fill:#F37B7C;}
	.st6{fill:#F6A0A5;}
	.st7{fill:#FFFFFF;stroke:#000000;stroke-miterlimit:10;}
	.st8{fill:#A7A9AC;}
	.st9{fill:#D1D3D4;stroke:#000000;stroke-width:0.4388;stroke-miterlimit:10;}
	.st10{opacity:0.7;fill:#FFFFFF;}
	.st11{opacity:0.6;fill:#FFFFFF;}
	.st12{fill:none;stroke:#2A3A3A;stroke-width:0.8777;stroke-linecap:round;stroke-linejoin:round;stroke-miterlimit:10;}
	.st13{fill:none;stroke:#2A3A3A;stroke-width:0.3291;stroke-linecap:round;stroke-linejoin:round;stroke-miterlimit:10;}
	.st14{fill:#F37B7C;stroke:#000000;stroke-width:0.4728;stroke-miterlimit:10;}
	.st15{fill:none;stroke:#2A3A3A;stroke-width:0.2194;stroke-miterlimit:10;}
	.st16{fill:#F69FA8;stroke:#000000;stroke-width:0.6003;stroke-miterlimit:10;}
	.st17{fill:#FFFFFF;}
	.st18{fill:#FFFFFF;stroke:#000000;stroke-width:0.6003;stroke-miterlimit:10;}
	.st19{fill:none;stroke:#000000;stroke-width:0.6003;stroke-linecap:round;stroke-linejoin:round;stroke-miterlimit:10;}
	.st20{fill:#F15F66;}
	.st21{fill:#FFFFFF;stroke:#000000;stroke-width:2.4397;stroke-linecap:round;stroke-linejoin:round;stroke-miterlimit:10;}
	.st22{fill:#EFAFBD;}
	.st23{fill:none;stroke:#000000;stroke-width:0.9149;stroke-miterlimit:10;}
	.st24{fill:#E6E6E6;}
</style>
<path class="st0" d="M70.8,95.9H48.3c-18.2,0-33-14.9-33-33v0c0-18.2,14.9-33,33-33h22.5c18.2,0,33,14.9,33,33v0
	C103.8,81.1,89,95.9,70.8,95.9z"/>
<path class="st1" d="M88.5,47c-13.7-12.2-39.1-15.6-48.4-5.9c-6.3,6.6-5.2,19.5-13.7,26.7c-1.2,1.1-3,2.2-5.2,2.8
	c-4.6,1.3-10.1,0.2-12.2-2.1c-5.3-5.8,0.1-22.2,8.7-32.2c18.3-21.3,61.8-26.5,80-5.6c5.9,6.8,8.1,15.1,8.8,22.4
	c0.1,5.3-0.3,11.2-2.7,11.8C100.5,65.9,97.4,54.9,88.5,47z"/>
<path class="st2" d="M95.9,28.8c6.9,15.3,8.8,24,5.9,26.2c-1.3,1-3.7,0.7-7-1"/>
<path class="st2" d="M82.7,20.7C91.6,33,95,40.5,92.8,43c-2.3,2.6-9.9-0.5-12.4-1.6"/>
<path class="st2" d="M64,17.4c11,5.2,17.2,11.9,15.9,15.3c-1.1,3.1-8.1,4.1-16.2,3.2"/>
<path class="st2" d="M48.7,19.1c9.8,0.5,15.9,6,15.6,9.7c-0.3,3.5-6.4,7.5-14.9,7.5"/>
<path class="st2" d="M30.7,25.9c8.9-3.7,16.7-0.6,17.9,3.2c1.1,3.3-2.3,8.8-8.5,12"/>
<path class="st2" d="M17.7,36.3c5-5.3,12.4-6.1,16.8-3c5.3,3.8,6.5,13.8-0.2,20.3"/>
<path class="st2" d="M11.8,45c4.5-3.5,10.1-4.9,14.1-2.9c5.9,2.9,8.9,13.7,2.6,23.5"/>
<path class="st2" d="M6.9,55.3c4.4-4.5,10.8-5.1,14.6-2.4c4.6,3.4,5.6,12.1-0.2,17.7"/>
<path class="st3" d="M36.1,63.6C36,58.8,40,55,44.2,55.3c3.8,0.3,7.1,3.9,6.9,8.2"/>
<path class="st3" d="M68.5,63.4c-0.1-4.8,4-8.5,8.2-8.1c3.8,0.4,7,4,6.7,8.4"/>
<ellipse class="st4" cx="60.5" cy="79.7" rx="3.2" ry="6.2"/>
<path class="st5" d="M62.9,83.5c0.2,0.5-0.4,1.1-0.8,1.5c-0.4,0.4-0.9,0.9-1.6,0.9c-0.7,0-1.2-0.5-1.5-0.7c-0.1-0.1-1.1-1.1-0.9-1.8
	c0.3-0.7,1.7-0.7,2.4-0.7C61,82.7,62.7,82.7,62.9,83.5z"/>
<ellipse class="st6" cx="38.7" cy="71.4" rx="6.6" ry="3.1"/>
<ellipse class="st6" cx="80.4" cy="70.6" rx="6.6" ry="3.1"/>
</svg>
