<?xml version="1.0" encoding="utf-8"?>
<!-- Generator: Adobe Illustrator 22.0.1, SVG Export Plug-In . SVG Version: 6.00 Build 0)  -->
<svg version="1.1" id="Layer_1" xmlns="http://www.w3.org/2000/svg" xmlns:xlink="http://www.w3.org/1999/xlink" x="0px" y="0px"
	 viewBox="0 0 113.4 113.4" style="enable-background:new 0 0 113.4 113.4;" xml:space="preserve">
<style type="text/css">
	.st0{fill:#F7F7F7;stroke:#000000;stroke-width:0.4728;stroke-miterlimit:10;}
	.st1{fill:#F37B7C;stroke:#FFFFFF;stroke-width:0.4728;stroke-miterlimit:10;}
	.st2{opacity:0.5;fill:none;stroke:#FFFFFF;stroke-width:1.4184;stroke-linecap:round;stroke-linejoin:round;stroke-miterlimit:10;}
	.st3{fill:none;stroke:#000000;stroke-width:0.9456;stroke-linecap:round;stroke-linejoin:round;stroke-miterlimit:10;}
	.st4{fill:#754D25;}
	.st5{fill:#F37B7C;}
	.st6{fill:#F6A0A5;}
	.st7{fill:#FFFFFF;stroke:#000000;stroke-miterlimit:10;}
	.st8{fill:#A7A9AC;}
	.st9{fill:#D1D3D4;stroke:#000000;stroke-width:0.4388;stroke-miterlimit:10;}
	.st10{opacity:0.7;fill:#FFFFFF;}
	.st11{opacity:0.6;fill:#FFFFFF;}
	.st12{fill:none;stroke:#2A3A3A;stroke-width:0.8777;stroke-linecap:round;stroke-linejoin:round;stroke-miterlimit:10;}
	.st13{fill:none;stroke:#2A3A3A;stroke-width:0.3291;stroke-linecap:round;stroke-linejoin:round;stroke-miterlimit:10;}
	.st14{fill:#F37B7C;stroke:#000000;stroke-width:0.4728;stroke-miterlimit:10;}
	.st15{fill:none;stroke:#2A3A3A;stroke-width:0.2194;stroke-miterlimit:10;}
	.st16{fill:#F69FA8;stroke:#000000;stroke-width:0.6003;stroke-miterlimit:10;}
	.st17{fill:#FFFFFF;}
	.st18{fill:#FFFFFF;stroke:#000000;stroke-width:0.6003;stroke-miterlimit:10;}
	.st19{fill:none;stroke:#000000;stroke-width:0.6003;stroke-linecap:round;stroke-linejoin:round;stroke-miterlimit:10;}
	.st20{fill:#F15F66;}
	.st21{fill:#FFFFFF;stroke:#000000;stroke-width:2.4397;stroke-linecap:round;stroke-linejoin:round;stroke-miterlimit:10;}
	.st22{fill:#EFAFBD;}
	.st23{fill:none;stroke:#000000;stroke-width:0.9149;stroke-miterlimit:10;}
	.st24{fill:#E6E6E6;}
</style>
<path class="st16" d="M76.2,109.3c-10-0.1-32,0.1-42,0c-4.4-18-2.3-36.1-6.7-54.1h57.6C80.4,73.2,81,91.3,76.2,109.3z"/>
<path d="M55.1,51.3l-3.4-1L65.1,5.2c0.5-0.6,1.2-0.8,1.9-0.7c0.8,0.2,1.4,0.9,1.5,1.7C64.1,21.3,59.6,36.3,55.1,51.3z"/>
<path class="st18" d="M27.5,55.2c0-15.9,12.9-28.8,28.8-28.8s28.8,12.9,28.8,28.8"/>
<rect x="26.7" y="55.2" width="59.5" height="3"/>
<polyline class="st19" points="44.6,38.8 48,41.3 44.6,43 "/>
<polyline class="st19" points="67.5,38.8 64.1,41.3 67.5,43 "/>
<ellipse class="st20" cx="56.4" cy="49.1" rx="1.8" ry="2.6"/>
</svg>
